Coordinates
version=1
nRows=16
nColumns=63
inDegrees=yes

Units are S.I. units (second, meters, Newtons, ...)
If the header above contains a line with 'inDegrees', this indicates whether rotational values are in degrees (yes) or radians (no).

endheader
time	pelvis_tilt	pelvis_list	pelvis_rotation	pelvis_tx	pelvis_ty	pelvis_tz	hip_flexion_r	hip_adduction_r	hip_rotation_r	knee_angle_r	knee_angle_r_beta	ankle_angle_r	subtalar_angle_r	mtp_angle_r	hip_flexion_l	hip_adduction_l	hip_rotation_l	knee_angle_l	knee_angle_l_beta	ankle_angle_l	subtalar_angle_l	mtp_angle_l	L5_S1_Flex_Ext	L5_S1_Lat_Bending	L5_S1_axial_rotation	L4_L5_Flex_Ext	L4_L5_Lat_Bending	L4_L5_axial_rotation	L3_L4_Flex_Ext	L3_L4_Lat_Bending	L3_L4_axial_rotation	L2_L3_Flex_Ext	L2_L3_Lat_Bending	L2_L3_axial_rotation	L1_L2_Flex_Ext	L1_L2_Lat_Bending	L1_L2_axial_rotation	L1_T12_Flex_Ext	L1_T12_Lat_Bending	L1_T12_axial_rotation	Abs_r3	Abs_r2	Abs_r1	Abs_t1	Abs_t2	neck_flexion	neck_bending	neck_rotation	arm_flex_r	arm_add_r	arm_rot_r	elbow_flex_r	pro_sup_r	wrist_flex_r	wrist_dev_r	arm_flex_l	arm_add_l	arm_rot_l	elbow_flex_l	pro_sup_l	wrist_flex_l	wrist_dev_l
7.932203	3.141664	-4.702384	83.435080	0.191768	0.684888	0.512779	1.513871	6.438322	8.895195	8.186257	0.142877	36.039836	-5.670882	0.000000	-0.039235	-2.892935	-2.956457	9.887985	0.172578	38.485148	5.395887	0.000000	-0.192061	1.111278	0.237612	-0.356677	1.478000	0.252463	-0.315538	2.701962	0.252463	-0.219507	2.701962	0.207911	-0.178348	2.266119	0.193060	-0.109744	1.721370	0.178209	-1.371875	12.571004	1.321528	0.000000	0.000000	20.188162	-5.062203	-15.499855	10.771807	-16.185954	111.340223	14.480050	13.500387	-4.258817	-8.918204	4.535960	-2.786317	161.977426	0.454084	4.221088	-5.038846	-10.886347
7.949153	3.081456	-4.747534	83.367947	0.191746	0.684781	0.513612	1.686104	6.384319	8.917420	8.308343	0.145008	36.045292	-5.611510	0.000000	0.129741	-2.857221	-3.081351	10.026297	0.174992	38.497901	5.386076	0.000000	-0.205827	1.101907	0.256747	-0.382241	1.465536	0.272793	-0.338153	2.679176	0.272793	-0.235240	2.679176	0.224653	-0.191131	2.247008	0.208607	-0.117609	1.706854	0.192560	-1.470201	12.464991	1.427948	0.000000	0.000000	20.013470	-4.458099	-12.627999	10.612517	-16.064744	110.591872	14.164782	12.943156	-4.182726	-9.637536	4.659625	-2.859428	161.005577	0.451746	3.898621	-4.780788	-11.067558
7.966102	2.983602	-4.777022	83.298339	0.191894	0.684531	0.514262	1.842998	6.300051	8.932748	8.453435	0.147540	36.110681	-5.554754	0.000000	0.266450	-2.793241	-3.218783	10.143204	0.177032	38.550686	5.396425	0.000000	-0.220341	1.083530	0.279077	-0.409194	1.441095	0.296520	-0.361997	2.634494	0.296520	-0.251827	2.634494	0.244193	-0.204608	2.209534	0.226750	-0.125903	1.678388	0.209308	-1.573870	12.257105	1.552144	0.000000	0.000000	19.858351	-4.029564	-10.098375	10.397487	-15.955795	109.229723	14.014668	12.797911	-4.209178	-10.392342	4.826612	-2.953008	160.313485	0.454648	4.000148	-4.596828	-11.091625
7.983051	2.844848	-4.796981	83.210751	0.192284	0.684132	0.514657	1.977175	6.196787	9.109827	8.610346	0.150279	36.188847	-5.713325	0.000000	0.368769	-2.705625	-3.437503	10.237811	0.178684	38.658034	5.502314	0.000000	-0.233582	1.055718	0.312211	-0.433785	1.404105	0.331724	-0.383752	2.566874	0.331724	-0.266961	2.566874	0.273184	-0.216904	2.152821	0.253671	-0.133469	1.635308	0.234158	-1.668452	11.942497	1.736423	0.000000	0.000000	19.748493	-3.751708	-7.918880	10.127435	-15.751248	108.196136	13.773337	12.431083	-4.163510	-11.193655	5.026181	-3.072387	160.076966	0.464816	4.270506	-4.510403	-10.955222
8.000000	2.667856	-4.804865	83.107540	0.192885	0.683592	0.514708	2.080078	6.067414	9.340752	8.781073	0.153259	36.300518	-5.960653	0.000000	0.425276	-2.595995	-3.765196	10.307210	0.179895	38.827626	5.764441	0.000000	-0.244435	1.019737	0.360377	-0.453940	1.356250	0.382901	-0.401582	2.479387	0.382901	-0.279365	2.479387	0.315330	-0.226982	2.079447	0.292807	-0.139670	1.579572	0.270283	-1.745974	11.535464	2.004311	0.000000	0.000000	19.708549	-3.599961	-6.025233	9.772427	-15.458705	107.445262	13.435704	11.906242	-4.072906	-12.000791	5.246062	-3.207651	160.285073	0.492165	4.639234	-4.544295	-10.661324
8.016949	2.469922	-4.805884	82.984200	0.193677	0.682920	0.514420	2.156868	5.920564	9.506851	8.968584	0.156531	36.477130	-6.127767	0.000000	0.440736	-2.493623	-4.377219	10.359595	0.180809	39.100328	6.396353	0.000000	-0.252240	0.978236	0.426105	-0.468435	1.301054	0.452737	-0.414405	2.378484	0.452737	-0.288285	2.378484	0.372842	-0.234230	1.994820	0.346211	-0.144130	1.515288	0.319579	-1.801726	11.066005	2.369871	0.000000	0.000000	19.696497	-3.451902	-4.263175	9.335694	-15.105664	106.903651	13.034740	11.310397	-3.937142	-12.758823	5.472957	-3.348370	160.849872	0.530256	5.086296	-4.704935	-10.220802
8.033898	2.251422	-4.808987	82.851750	0.194592	0.682141	0.513802	2.207227	5.766713	9.795516	9.151855	0.159730	36.642269	-6.481686	0.000000	0.416437	-2.367414	-4.930960	10.367740	0.180951	39.392546	6.967314	0.000000	-0.255300	0.932536	0.514505	-0.474117	1.240273	0.546661	-0.419432	2.267369	0.546661	-0.291782	2.267369	0.450192	-0.237071	1.901628	0.418035	-0.145878	1.444499	0.385879	-1.823580	10.549038	2.861522	0.000000	0.000000	19.721429	-3.436403	-2.673422	8.795290	-14.687324	106.584307	12.528459	10.636484	-3.792418	-13.434720	5.727220	-3.480157	161.759724	0.614473	5.516377	-4.955517	-9.649832
8.050847	2.020098	-4.822684	82.717084	0.195611	0.681284	0.512884	2.243855	5.612996	10.171520	9.336664	0.162956	36.798525	-6.980012	0.000000	0.370352	-2.238767	-5.572060	10.349547	0.180634	39.734040	7.670888	0.000000	-0.252796	0.883701	0.621626	-0.469467	1.175323	0.660478	-0.415318	2.148631	0.660478	-0.288920	2.148631	0.543923	-0.234746	1.802044	0.505071	-0.144448	1.368853	0.466220	-1.805695	9.996606	3.457300	0.000000	0.000000	19.696805	-3.422188	-1.080791	8.213030	-14.151162	107.172288	11.765179	9.404651	-3.443567	-14.056059	5.986438	-3.602551	162.988792	0.715469	5.922074	-5.258780	-8.953279
8.067797	1.756659	-4.836657	82.633922	0.196721	0.680476	0.511795	2.271614	5.429651	10.399872	9.530642	0.166341	36.976937	-7.380856	0.000000	0.315025	-2.089437	-6.243719	10.313914	0.180012	40.082965	8.487988	0.000000	-0.246929	0.827450	0.719718	-0.458572	1.100509	0.764700	-0.405680	2.011862	0.764700	-0.282215	2.011862	0.629753	-0.229298	1.687336	0.584771	-0.141095	1.281720	0.539788	-1.763790	9.360282	4.002854	0.000000	0.000000	19.631761	-3.373123	0.555134	8.100027	-13.535934	110.672141	10.474762	5.427955	-2.894040	-15.286474	6.223739	-3.756820	164.386045	0.821146	6.281696	-5.590159	-8.155837
8.084746	1.523561	-4.875630	82.581119	0.197687	0.679660	0.510542	2.307714	5.274389	10.625930	9.729098	0.169805	37.123623	-7.852069	0.000000	0.266349	-1.959787	-6.830019	10.252245	0.178935	40.441403	9.257308	0.000000	-0.236317	0.775795	0.829126	-0.438863	1.031807	0.880947	-0.388244	1.886268	0.880947	-0.270086	1.886268	0.725486	-0.219444	1.582001	0.673665	-0.135031	1.201706	0.621845	-1.687985	8.775947	4.611353	0.000000	0.000000	19.618776	-3.379179	2.294443	7.704822	-13.046310	112.178231	9.753345	3.209766	-2.578970	-16.064448	6.465624	-3.862958	166.032026	0.927315	6.614357	-5.876319	-7.280928
8.101695	1.319594	-4.936810	82.596447	0.198423	0.678909	0.509211	2.356746	5.133195	10.709096	9.933248	0.173368	37.262976	-8.245178	0.000000	0.239441	-1.840880	-7.221708	10.173672	0.177564	40.775136	9.888350	0.000000	-0.222983	0.728986	0.933553	-0.414102	0.969552	0.991900	-0.366339	1.772458	0.991900	-0.254847	1.772458	0.816859	-0.207062	1.486549	0.758512	-0.127412	1.129200	0.700165	-1.592745	8.246440	5.192141	0.000000	0.000000	19.722322	-3.397870	4.230497	7.093782	-12.703012	111.843120	9.551207	2.701568	-2.449211	-16.422506	6.702842	-3.934342	167.733178	1.024215	6.949028	-6.032958	-6.415270
8.118644	1.156074	-5.037845	82.646829	0.198939	0.678281	0.507886	2.446003	5.024142	10.712103	10.146454	0.177089	37.342992	-8.632956	0.000000	0.244733	-1.753348	-7.588628	10.060894	0.175596	41.087244	10.543982	0.000000	-0.205186	0.689545	1.040148	-0.381051	0.917095	1.105158	-0.337100	1.676560	1.105158	-0.234507	1.676560	0.910130	-0.190536	1.406120	0.845121	-0.117243	1.068105	0.780111	-1.465622	7.800270	5.784994	0.000000	0.000000	19.971944	-3.442049	6.393727	6.249683	-12.492884	109.671549	9.823618	3.818475	-2.470864	-16.426578	6.941695	-3.958770	169.608625	1.108649	7.182634	-6.073241	-5.572828
8.135593	1.040975	-5.166786	82.750168	0.199162	0.677856	0.506644	2.564751	4.941735	10.549498	10.353447	0.180702	37.394550	-8.885112	0.000000	0.278451	-1.686761	-7.709294	9.920854	0.173152	41.313340	10.961232	0.000000	-0.185499	0.659127	1.134464	-0.344490	0.876639	1.205368	-0.304756	1.602602	1.205368	-0.212007	1.602602	0.992656	-0.172254	1.344092	0.921752	-0.105994	1.020988	0.850848	-1.325002	7.456180	6.309549	0.000000	0.000000	20.340300	-3.425614	8.885965	5.273834	-12.444935	106.144657	10.473585	6.190996	-2.591346	-16.117415	7.162197	-3.941862	171.257272	1.172286	7.487133	-5.927098	-4.838453
8.152542	0.986464	-5.317600	82.909987	0.199032	0.677697	0.505578	2.708580	4.894214	10.230266	10.535660	0.183882	37.406128	-9.000204	0.000000	0.339376	-1.652504	-7.614088	9.758149	0.170312	41.440932	11.173737	0.000000	-0.165443	0.640304	1.210173	-0.307244	0.851604	1.285809	-0.271806	1.556834	1.285809	-0.189084	1.556834	1.058902	-0.153630	1.305707	0.983266	-0.094534	0.991830	0.907630	-1.181740	7.243244	6.730621	0.000000	0.000000	20.768788	-3.311746	11.749592	4.221133	-12.565468	101.508826	11.414580	9.660002	-2.770493	-15.488936	7.358329	-3.878862	172.495928	1.211078	7.827391	-5.561853	-4.262526
8.169492	1.004022	-5.475579	83.124619	0.198545	0.677855	0.504769	2.864922	4.892733	9.765034	10.680621	0.186412	37.370773	-8.971508	0.000000	0.416595	-1.662838	-7.317452	9.579427	0.167193	41.451798	11.181682	0.000000	-0.146823	0.634663	1.268404	-0.272664	0.844102	1.347679	-0.241215	1.543120	1.347679	-0.167804	1.543120	1.109853	-0.136339	1.294205	1.030578	-0.083894	0.983093	0.951303	-1.048739	7.179436	7.054481	0.000000	0.000000	21.183562	-3.096975	14.930352	3.130619	-12.858147	96.022394	12.570992	14.005089	-2.987166	-14.563280	7.550613	-3.772651	173.359695	1.221634	8.134886	-4.912795	-3.863969
8.186441	1.090615	-5.634909	83.411016	0.197656	0.678344	0.504293	3.032686	4.931345	9.171499	10.780866	0.188162	37.284103	-8.808952	0.000000	0.514300	-1.711449	-6.790500	9.396914	0.164007	41.319358	10.950705	0.000000	-0.130954	0.642370	1.297850	-0.243194	0.854352	1.378966	-0.215144	1.561858	1.378966	-0.149667	1.561858	1.135619	-0.121604	1.309921	1.054503	-0.074827	0.995031	0.973388	-0.935389	7.266617	7.218253	0.000000	0.000000	21.522273	-2.759624	18.415539	2.088205	-13.325042	90.020351	13.878351	19.160986	-3.219740	-13.379840	7.715782	-3.635650	173.731056	1.204281	8.383845	-4.156086	-3.733864
